<?xml version="1.0" encoding="UTF-8"?>
<svg id="head" xmlns="http://www.w3.org/2000/svg" viewBox="0 0 422 368">
  <defs>
    <style>
      .cls-1 {
        fill: #fff;
        stroke-width: 0px;
      }
    </style>
  </defs>
  <g>
    <path class="cls-1" d="M140.02,277.98h-38.99v-83.98h-33.99v-25.99h33.99c12-85.98,95.98-95.33,95.98-95.33V.04h-66.14v67.99h-63.83v31.99H.05v67.99h45.99v25.99H.04v73.98h64.99l-.11,38.99h66.72v60.99h65.36v-60.99h27.99v60.99h65.36v-60.99h66.72l-.11-38.99h64.99v-73.98h-45.99v-25.99h45.99v-67.99h-66.99v-31.99h-63.83V.04h-66.14v72.63s83.98,9.35,95.98,95.33h33.99v25.99h-33.99v83.98h-38.99c0-104.98-141.97-104.98-141.97,0Z"/>
    <path class="cls-1" d="M102.76,367.96v-36.99H36.04v-39H.04c0,24.99,0,50.99,0,75.99h102.71Z"/>
    <path class="cls-1" d="M319.24,367.96v-36.99h66.72s0-39,0-39h36c0,24.99,0,50.99,0,75.99h-102.71Z"/>
    <path class="cls-1" d="M102.76.04v36.99H36.04v39H.04C.04,51.03.05,25.03.05.04h102.71Z"/>
    <path class="cls-1" d="M319.24.04v36.99h66.72s0,39,0,39h36c0-24.99,0-50.99,0-75.99h-102.71Z"/>
  </g>
  <ellipse class="cls-1" cx="211" cy="166.78" rx="34.12" ry="35.65"/>
</svg>